<?xml version="1.0" encoding="UTF-8" standalone="no"?>
<!DOCTYPE svg PUBLIC "-//W3C//DTD SVG 1.1//EN"
 "http://www.w3.org/Graphics/SVG/1.1/DTD/svg11.dtd">
<!-- Generated by graphviz version 2.40.1 (20161225.0304)
 -->
<!-- Title: state transitions Pages: 1 -->
<svg width="562pt" height="634pt"
 viewBox="0.00 0.00 562.00 634.00" xmlns="http://www.w3.org/2000/svg" xmlns:xlink="http://www.w3.org/1999/xlink">
<g id="graph0" class="graph" transform="scale(1 1) rotate(0) translate(4 630)">
<title>state transitions</title>
<polygon fill="#ffffff" stroke="transparent" points="-4,4 -4,-630 558,-630 558,4 -4,4"/>
<g id="clust1" class="cluster state regular">
<title>cluster_next_scl_state</title>
<path fill="none" stroke="#000000" stroke-width="2" d="M20,-8C20,-8 534,-8 534,-8 540,-8 546,-14 546,-20 546,-20 546,-606 546,-606 546,-612 540,-618 534,-618 534,-618 20,-618 20,-618 14,-618 8,-612 8,-606 8,-606 8,-20 8,-20 8,-14 14,-8 20,-8"/>
<text text-anchor="start" x="238.654" y="-599.2" font-family="Helvetica,sans-Serif" font-size="12.00" fill="#000000">next_scl_state</text>
</g>
<!-- next_scl_state -->
<!-- SCL_IDLE -->
<g id="node2" class="node state regular">
<title>SCL_IDLE</title>
<polygon fill="#ffffff" fill-opacity="0.003922" stroke="transparent" stroke-width="2" points="216,-580 138,-580 138,-544 216,-544 216,-580"/>
<text text-anchor="start" x="148.6608" y="-558.2" font-family="Helvetica,sans-Serif" font-size="12.00" fill="#000000">SCL_IDLE</text>
<path fill="none" stroke="#000000" stroke-width="2" d="M150.3333,-545C150.3333,-545 203.6667,-545 203.6667,-545 209.3333,-545 215,-550.6667 215,-556.3333 215,-556.3333 215,-567.6667 215,-567.6667 215,-573.3333 209.3333,-579 203.6667,-579 203.6667,-579 150.3333,-579 150.3333,-579 144.6667,-579 139,-573.3333 139,-567.6667 139,-567.6667 139,-556.3333 139,-556.3333 139,-550.6667 144.6667,-545 150.3333,-545"/>
</g>
<!-- START -->
<g id="node3" class="node state regular">
<title>START</title>
<polygon fill="#ffffff" fill-opacity="0.003922" stroke="transparent" stroke-width="2" points="279.5,-498 218.5,-498 218.5,-462 279.5,-462 279.5,-498"/>
<text text-anchor="start" x="229.835" y="-476.2" font-family="Helvetica,sans-Serif" font-size="12.00" fill="#000000">START</text>
<path fill="none" stroke="#000000" stroke-width="2" d="M230.8333,-463C230.8333,-463 267.1667,-463 267.1667,-463 272.8333,-463 278.5,-468.6667 278.5,-474.3333 278.5,-474.3333 278.5,-485.6667 278.5,-485.6667 278.5,-491.3333 272.8333,-497 267.1667,-497 267.1667,-497 230.8333,-497 230.8333,-497 225.1667,-497 219.5,-491.3333 219.5,-485.6667 219.5,-485.6667 219.5,-474.3333 219.5,-474.3333 219.5,-468.6667 225.1667,-463 230.8333,-463"/>
</g>
<!-- SCL_IDLE&#45;&gt;START -->
<g id="edge1" class="edge transition">
<title>SCL_IDLE&#45;&gt;START</title>
<path fill="none" stroke="#000000" d="M180.722,-543.6415C183.3062,-534.3256 187.5104,-523.2639 194.143,-515 198.5139,-509.5541 203.9722,-504.6975 209.738,-500.4632"/>
<polygon fill="#000000" stroke="#000000" points="211.9608,-503.1866 218.3147,-494.7085 208.0606,-497.3738 211.9608,-503.1866"/>
<text text-anchor="start" x="194" y="-518" font-family="Helvetica,sans-Serif" font-size="10.00" fill="#000000">master_slave = &#39;1&#39; and bus_busy = &#39;0&#39; and gen_start = &#39;1&#39; &#160;&#160;</text>
</g>
<!-- START&#45;&gt;START -->
<g id="edge3" class="edge transition">
<title>START&#45;&gt;START</title>
<path fill="none" stroke="#000000" d="M279.7377,-484.856C291.6221,-485.0718 301.5,-483.4531 301.5,-480 301.5,-477.626 296.8311,-476.119 290.0512,-475.4792"/>
<polygon fill="#000000" stroke="#000000" points="289.8461,-471.9707 279.7377,-475.144 289.6187,-478.967 289.8461,-471.9707"/>
<text text-anchor="start" x="301.5" y="-477" font-family="Helvetica,sans-Serif" font-size="10.00" fill="#000000">not (clk_cnt = START_HOLD) &#160;&#160;</text>
</g>
<!-- SCL_LOW_EDGE -->
<g id="node4" class="node state regular">
<title>SCL_LOW_EDGE</title>
<polygon fill="#ffffff" fill-opacity="0.003922" stroke="transparent" stroke-width="2" points="319,-404 199,-404 199,-368 319,-368 319,-404"/>
<text text-anchor="start" x="209.9932" y="-382.2" font-family="Helvetica,sans-Serif" font-size="12.00" fill="#000000">SCL_LOW_EDGE</text>
<path fill="none" stroke="#000000" stroke-width="2" d="M211.3333,-369C211.3333,-369 306.6667,-369 306.6667,-369 312.3333,-369 318,-374.6667 318,-380.3333 318,-380.3333 318,-391.6667 318,-391.6667 318,-397.3333 312.3333,-403 306.6667,-403 306.6667,-403 211.3333,-403 211.3333,-403 205.6667,-403 200,-397.3333 200,-391.6667 200,-391.6667 200,-380.3333 200,-380.3333 200,-374.6667 205.6667,-369 211.3333,-369"/>
</g>
<!-- START&#45;&gt;SCL_LOW_EDGE -->
<g id="edge2" class="edge transition">
<title>START&#45;&gt;SCL_LOW_EDGE</title>
<path fill="none" stroke="#000000" d="M250.9281,-461.8759C252.3669,-448.3516 254.3597,-429.6192 256.0052,-414.1514"/>
<polygon fill="#000000" stroke="#000000" points="259.5002,-414.3827 257.0778,-404.0685 252.5395,-413.6421 259.5002,-414.3827"/>
<text text-anchor="start" x="255" y="-430" font-family="Helvetica,sans-Serif" font-size="10.00" fill="#000000">clk_cnt = START_HOLD &#160;&#160;</text>
</g>
<!-- SCL_LOW -->
<g id="node5" class="node state regular">
<title>SCL_LOW</title>
<polygon fill="#ffffff" fill-opacity="0.003922" stroke="transparent" stroke-width="2" points="94.5,-322 15.5,-322 15.5,-286 94.5,-286 94.5,-322"/>
<text text-anchor="start" x="26.8302" y="-300.2" font-family="Helvetica,sans-Serif" font-size="12.00" fill="#000000">SCL_LOW</text>
<path fill="none" stroke="#000000" stroke-width="2" d="M27.8333,-287C27.8333,-287 82.1667,-287 82.1667,-287 87.8333,-287 93.5,-292.6667 93.5,-298.3333 93.5,-298.3333 93.5,-309.6667 93.5,-309.6667 93.5,-315.3333 87.8333,-321 82.1667,-321 82.1667,-321 27.8333,-321 27.8333,-321 22.1667,-321 16.5,-315.3333 16.5,-309.6667 16.5,-309.6667 16.5,-298.3333 16.5,-298.3333 16.5,-292.6667 22.1667,-287 27.8333,-287"/>
</g>
<!-- SCL_LOW_EDGE&#45;&gt;SCL_LOW -->
<g id="edge4" class="edge transition">
<title>SCL_LOW_EDGE&#45;&gt;SCL_LOW</title>
<path fill="none" stroke="#000000" d="M213.9788,-367.9032C181.5135,-354.8535 137.7092,-337.2459 104.3023,-323.8176"/>
<polygon fill="#000000" stroke="#000000" points="105.318,-320.4537 94.7342,-319.9716 102.7073,-326.9487 105.318,-320.4537"/>
<text text-anchor="middle" x="171.3895" y="-342" font-family="Helvetica,sans-Serif" font-size="10.00" fill="#000000"> </text>
</g>
<!-- SCL_LOW&#45;&gt;SCL_IDLE -->
<g id="edge5" class="edge transition">
<title>SCL_LOW&#45;&gt;SCL_IDLE</title>
<path fill="none" stroke="#000000" d="M43.9458,-322.1274C40.6988,-329.0348 38,-337.1402 38,-345 38,-521 38,-521 38,-521 38,-540.3092 87.9698,-551.2029 127.9877,-556.8311"/>
<polygon fill="#000000" stroke="#000000" points="127.5368,-560.3018 137.9108,-558.1504 128.4594,-553.3629 127.5368,-560.3018"/>
<text text-anchor="start" x="38" y="-436" font-family="Helvetica,sans-Serif" font-size="10.00" fill="#000000">bit_cnt = CNT_DONE and arb_lost = &#39;1&#39; &#160;&#160;</text>
<text text-anchor="start" x="38" y="-424" font-family="Helvetica,sans-Serif" font-size="10.00" fill="#000000">clk_cnt = LOW_CNT &#160;&#160;</text>
</g>
<!-- SCL_LOW&#45;&gt;SCL_LOW -->
<g id="edge7" class="edge transition">
<title>SCL_LOW&#45;&gt;SCL_LOW</title>
<path fill="none" stroke="#000000" d="M94.6309,-308.8702C106.8806,-308.7719 116.5,-307.1484 116.5,-304 116.5,-301.7863 111.7443,-300.3265 104.6625,-299.6206"/>
<polygon fill="#000000" stroke="#000000" points="104.7901,-296.1228 94.6309,-299.1298 104.4479,-303.1144 104.7901,-296.1228"/>
<text text-anchor="start" x="116.5" y="-301" font-family="Helvetica,sans-Serif" font-size="10.00" fill="#000000">not (clk_cnt = LOW_CNT) &#160;&#160;</text>
</g>
<!-- SCL_HIGH_EDGE -->
<g id="node6" class="node state regular">
<title>SCL_HIGH_EDGE</title>
<polygon fill="#ffffff" fill-opacity="0.003922" stroke="transparent" stroke-width="2" points="165,-228 43,-228 43,-192 165,-192 165,-228"/>
<text text-anchor="start" x="53.6618" y="-206.2" font-family="Helvetica,sans-Serif" font-size="12.00" fill="#000000">SCL_HIGH_EDGE</text>
<path fill="none" stroke="#000000" stroke-width="2" d="M55.3333,-193C55.3333,-193 152.6667,-193 152.6667,-193 158.3333,-193 164,-198.6667 164,-204.3333 164,-204.3333 164,-215.6667 164,-215.6667 164,-221.3333 158.3333,-227 152.6667,-227 152.6667,-227 55.3333,-227 55.3333,-227 49.6667,-227 44,-221.3333 44,-215.6667 44,-215.6667 44,-204.3333 44,-204.3333 44,-198.6667 49.6667,-193 55.3333,-193"/>
</g>
<!-- SCL_LOW&#45;&gt;SCL_HIGH_EDGE -->
<g id="edge6" class="edge transition">
<title>SCL_LOW&#45;&gt;SCL_HIGH_EDGE</title>
<path fill="none" stroke="#000000" d="M51.0068,-285.9566C49.2467,-273.7249 48.8315,-257.5616 55.314,-245 57.1415,-241.4587 59.5111,-238.1939 62.2199,-235.202"/>
<polygon fill="#000000" stroke="#000000" points="64.6466,-237.7245 69.536,-228.3253 59.8524,-232.6239 64.6466,-237.7245"/>
<text text-anchor="start" x="55" y="-260" font-family="Helvetica,sans-Serif" font-size="10.00" fill="#000000">clk_cnt = LOW_CNT &#160;&#160;</text>
<text text-anchor="start" x="55" y="-248" font-family="Helvetica,sans-Serif" font-size="10.00" fill="#000000">not (bit_cnt = CNT_DONE and arb_lost = &#39;1&#39;) &#160;&#160;</text>
</g>
<!-- SCL_HIGH_EDGE&#45;&gt;SCL_HIGH_EDGE -->
<g id="edge8" class="edge transition">
<title>SCL_HIGH_EDGE&#45;&gt;SCL_HIGH_EDGE</title>
<path fill="none" stroke="#000000" d="M165.1684,-214.7036C177.8678,-214.2085 187,-212.6406 187,-210 187,-208.1433 182.4852,-206.817 175.39,-206.021"/>
<polygon fill="#000000" stroke="#000000" points="175.3909,-202.5124 165.1684,-205.2964 174.8959,-209.4948 175.3909,-202.5124"/>
<text text-anchor="start" x="187" y="-207" font-family="Helvetica,sans-Serif" font-size="10.00" fill="#000000">scl_in = &#39;0&#39; &#160;&#160;</text>
</g>
<!-- SCL_HIGH -->
<g id="node7" class="node state regular">
<title>SCL_HIGH</title>
<polygon fill="#ffffff" fill-opacity="0.003922" stroke="transparent" stroke-width="2" points="284,-146 202,-146 202,-110 284,-110 284,-146"/>
<text text-anchor="start" x="212.9988" y="-124.2" font-family="Helvetica,sans-Serif" font-size="12.00" fill="#000000">SCL_HIGH</text>
<path fill="none" stroke="#000000" stroke-width="2" d="M214.3333,-111C214.3333,-111 271.6667,-111 271.6667,-111 277.3333,-111 283,-116.6667 283,-122.3333 283,-122.3333 283,-133.6667 283,-133.6667 283,-139.3333 277.3333,-145 271.6667,-145 271.6667,-145 214.3333,-145 214.3333,-145 208.6667,-145 203,-139.3333 203,-133.6667 203,-133.6667 203,-122.3333 203,-122.3333 203,-116.6667 208.6667,-111 214.3333,-111"/>
</g>
<!-- SCL_HIGH_EDGE&#45;&gt;SCL_HIGH -->
<g id="edge9" class="edge transition">
<title>SCL_HIGH_EDGE&#45;&gt;SCL_HIGH</title>
<path fill="none" stroke="#000000" d="M134.8486,-191.8015C155.0939,-179.8583 181.7553,-164.13 203.5403,-151.2784"/>
<polygon fill="#000000" stroke="#000000" points="205.403,-154.2432 212.2376,-146.1476 201.8463,-148.2141 205.403,-154.2432"/>
<text text-anchor="start" x="182" y="-166" font-family="Helvetica,sans-Serif" font-size="10.00" fill="#000000">not (scl_in = &#39;0&#39;) &#160;&#160;</text>
</g>
<!-- SCL_HIGH&#45;&gt;START -->
<g id="edge10" class="edge transition">
<title>SCL_HIGH&#45;&gt;START</title>
<path fill="none" stroke="#000000" d="M284.3943,-129.7497C335.0023,-133.0439 414,-142.4398 414,-169 414,-236.5 414,-236.5 414,-236.5 414,-253.2317 408.4833,-259.0928 395,-269 367.7817,-288.9994 341.973,-259.5802 320.93,-286 274.2461,-344.6123 422.4635,-385.4361 377,-445 366.3277,-458.9823 322.8439,-468.7371 289.4898,-474.3328"/>
<polygon fill="#000000" stroke="#000000" points="288.8295,-470.8939 279.5113,-475.9359 289.9399,-477.8053 288.8295,-470.8939"/>
<text text-anchor="start" x="320" y="-307" font-family="Helvetica,sans-Serif" font-size="10.00" fill="#000000">rep_start = &#39;1&#39; &#160;&#160;</text>
<text text-anchor="start" x="320" y="-295" font-family="Helvetica,sans-Serif" font-size="10.00" fill="#000000">clk_cnt = HIGH_CNT_2 &#160;&#160;</text>
</g>
<!-- SCL_HIGH&#45;&gt;SCL_LOW_EDGE -->
<g id="edge12" class="edge transition">
<title>SCL_HIGH&#45;&gt;SCL_LOW_EDGE</title>
<path fill="none" stroke="#000000" d="M276.914,-146.0565C283.8087,-152.154 289,-159.7998 289,-169 289,-236.5 289,-236.5 289,-236.5 289,-259.1372 281.6739,-263.8505 277,-286 271.906,-310.1404 267.0053,-337.7519 263.6072,-357.836"/>
<polygon fill="#000000" stroke="#000000" points="260.1264,-357.431 261.9283,-367.8715 267.0305,-358.5862 260.1264,-357.431"/>
<text text-anchor="start" x="288" y="-254" font-family="Helvetica,sans-Serif" font-size="10.00" fill="#000000">clk_cnt = HIGH_CNT &#160;&#160;</text>
</g>
<!-- SCL_HIGH&#45;&gt;SCL_HIGH -->
<g id="edge13" class="edge transition">
<title>SCL_HIGH&#45;&gt;SCL_HIGH</title>
<path fill="none" stroke="#000000" d="M284.2026,-132.8643C296.4613,-132.7191 306,-131.0977 306,-128 306,-125.822 301.2842,-124.3737 294.2229,-123.6554"/>
<polygon fill="#000000" stroke="#000000" points="294.3705,-120.1584 284.2026,-123.1357 294.0079,-127.149 294.3705,-120.1584"/>
<text text-anchor="start" x="306" y="-131" font-family="Helvetica,sans-Serif" font-size="10.00" fill="#000000">not (clk_cnt = HIGH_CNT_2) &#160;&#160;</text>
<text text-anchor="start" x="306" y="-119" font-family="Helvetica,sans-Serif" font-size="10.00" fill="#000000">not (clk_cnt = HIGH_CNT) &#160;&#160;</text>
</g>
<!-- STOP_WAIT -->
<g id="node8" class="node state regular">
<title>STOP_WAIT</title>
<polygon fill="#ffffff" fill-opacity="0.003922" stroke="transparent" stroke-width="2" points="354.5,-52 263.5,-52 263.5,-16 354.5,-16 354.5,-52"/>
<text text-anchor="start" x="274.8314" y="-30.2" font-family="Helvetica,sans-Serif" font-size="12.00" fill="#000000">STOP_WAIT</text>
<path fill="none" stroke="#000000" stroke-width="2" d="M275.8333,-17C275.8333,-17 342.1667,-17 342.1667,-17 347.8333,-17 353.5,-22.6667 353.5,-28.3333 353.5,-28.3333 353.5,-39.6667 353.5,-39.6667 353.5,-45.3333 347.8333,-51 342.1667,-51 342.1667,-51 275.8333,-51 275.8333,-51 270.1667,-51 264.5,-45.3333 264.5,-39.6667 264.5,-39.6667 264.5,-28.3333 264.5,-28.3333 264.5,-22.6667 270.1667,-17 275.8333,-17"/>
</g>
<!-- SCL_HIGH&#45;&gt;STOP_WAIT -->
<g id="edge11" class="edge transition">
<title>SCL_HIGH&#45;&gt;STOP_WAIT</title>
<path fill="none" stroke="#000000" d="M255.7255,-109.8759C265.5865,-95.8314 279.3909,-76.1706 290.4768,-60.3816"/>
<polygon fill="#000000" stroke="#000000" points="293.4317,-62.2639 296.3136,-52.0685 287.7028,-58.2414 293.4317,-62.2639"/>
<text text-anchor="start" x="284" y="-84" font-family="Helvetica,sans-Serif" font-size="10.00" fill="#000000">stop_scl_reg = &#39;1&#39; &#160;&#160;</text>
<text text-anchor="start" x="284" y="-72" font-family="Helvetica,sans-Serif" font-size="10.00" fill="#000000">clk_cnt = HIGH_CNT_2 &#160;&#160;</text>
</g>
<!-- STOP_WAIT&#45;&gt;SCL_IDLE -->
<g id="edge14" class="edge transition">
<title>STOP_WAIT&#45;&gt;SCL_IDLE</title>
<path fill="none" stroke="#000000" d="M354.605,-39.1887C399.3776,-45.5896 461,-58.4884 461,-81 461,-521 461,-521 461,-521 461,-524.4712 459.0456,-525.3345 456,-527 436.3135,-537.7657 301.0028,-551.1202 226.2982,-557.7924"/>
<polygon fill="#000000" stroke="#000000" points="225.8299,-554.3201 216.1776,-558.6886 226.4474,-561.2928 225.8299,-554.3201"/>
<text text-anchor="start" x="461" y="-301" font-family="Helvetica,sans-Serif" font-size="10.00" fill="#000000">clk_cnt = TBUF &#160;&#160;</text>
</g>
<!-- STOP_WAIT&#45;&gt;STOP_WAIT -->
<g id="edge15" class="edge transition">
<title>STOP_WAIT&#45;&gt;STOP_WAIT</title>
<path fill="none" stroke="#000000" d="M354.7453,-38.839C367.1005,-38.5837 376.5,-36.9707 376.5,-34 376.5,-31.9112 371.853,-30.4937 364.7991,-29.7474"/>
<polygon fill="#000000" stroke="#000000" points="364.9322,-26.2493 354.7453,-29.161 364.5245,-33.2374 364.9322,-26.2493"/>
<text text-anchor="start" x="376.5" y="-31" font-family="Helvetica,sans-Serif" font-size="10.00" fill="#000000">not (clk_cnt = TBUF) &#160;&#160;</text>
</g>
</g>
</svg>
