<?xml version="1.0" encoding="UTF-8" standalone="no"?>
<!DOCTYPE svg PUBLIC "-//W3C//DTD SVG 1.1//EN"
 "http://www.w3.org/Graphics/SVG/1.1/DTD/svg11.dtd">
<!-- Generated by graphviz version 2.40.1 (20161225.0304)
 -->
<!-- Title: state transitions Pages: 1 -->
<svg width="960pt" height="470pt"
 viewBox="0.00 0.00 960.27 470.00" xmlns="http://www.w3.org/2000/svg" xmlns:xlink="http://www.w3.org/1999/xlink">
<g id="graph0" class="graph" transform="scale(1 1) rotate(0) translate(4 466)">
<title>state transitions</title>
<polygon fill="#ffffff" stroke="transparent" points="-4,4 -4,-466 956.274,-466 956.274,4 -4,4"/>
<g id="clust1" class="cluster state regular">
<title>cluster_state</title>
<path fill="none" stroke="#000000" stroke-width="2" d="M20,-8C20,-8 916,-8 916,-8 922,-8 928,-14 928,-20 928,-20 928,-442 928,-442 928,-448 922,-454 916,-454 916,-454 20,-454 20,-454 14,-454 8,-448 8,-442 8,-442 8,-20 8,-20 8,-14 14,-8 20,-8"/>
<text text-anchor="start" x="454.9944" y="-435.2" font-family="Helvetica,sans-Serif" font-size="12.00" fill="#000000">state</text>
</g>
<!-- state -->
<!-- IDLE -->
<g id="node2" class="node state regular">
<title>IDLE</title>
<polygon fill="#ffffff" fill-opacity="0.003922" stroke="transparent" stroke-width="2" points="476,-416 420,-416 420,-380 476,-380 476,-416"/>
<text text-anchor="start" x="434.6644" y="-394.2" font-family="Helvetica,sans-Serif" font-size="12.00" fill="#000000">IDLE</text>
<path fill="none" stroke="#000000" stroke-width="2" d="M432.3333,-381C432.3333,-381 463.6667,-381 463.6667,-381 469.3333,-381 475,-386.6667 475,-392.3333 475,-392.3333 475,-403.6667 475,-403.6667 475,-409.3333 469.3333,-415 463.6667,-415 463.6667,-415 432.3333,-415 432.3333,-415 426.6667,-415 421,-409.3333 421,-403.6667 421,-403.6667 421,-392.3333 421,-392.3333 421,-386.6667 426.6667,-381 432.3333,-381"/>
</g>
<!-- HEADER -->
<g id="node3" class="node state regular">
<title>HEADER</title>
<polygon fill="#ffffff" fill-opacity="0.003922" stroke="transparent" stroke-width="2" points="581.5,-334 510.5,-334 510.5,-298 581.5,-298 581.5,-334"/>
<text text-anchor="start" x="521.5016" y="-312.2" font-family="Helvetica,sans-Serif" font-size="12.00" fill="#000000">HEADER</text>
<path fill="none" stroke="#000000" stroke-width="2" d="M522.8333,-299C522.8333,-299 569.1667,-299 569.1667,-299 574.8333,-299 580.5,-304.6667 580.5,-310.3333 580.5,-310.3333 580.5,-321.6667 580.5,-321.6667 580.5,-327.3333 574.8333,-333 569.1667,-333 569.1667,-333 522.8333,-333 522.8333,-333 517.1667,-333 511.5,-327.3333 511.5,-321.6667 511.5,-321.6667 511.5,-310.3333 511.5,-310.3333 511.5,-304.6667 517.1667,-299 522.8333,-299"/>
</g>
<!-- IDLE&#45;&gt;HEADER -->
<g id="edge1" class="edge transition">
<title>IDLE&#45;&gt;HEADER</title>
<path fill="none" stroke="#000000" d="M469.7494,-379.8015C483.4521,-368.336 501.3237,-353.3822 516.3204,-340.8339"/>
<polygon fill="#000000" stroke="#000000" points="518.8881,-343.2491 524.3114,-334.1476 514.396,-337.8806 518.8881,-343.2491"/>
<text text-anchor="start" x="503" y="-354" font-family="Helvetica,sans-Serif" font-size="10.00" fill="#000000">detect_start = &#39;1&#39; &#160;&#160;</text>
</g>
<!-- ACK_HEADER -->
<g id="node4" class="node state regular">
<title>ACK_HEADER</title>
<polygon fill="#ffffff" fill-opacity="0.003922" stroke="transparent" stroke-width="2" points="364.5,-252 261.5,-252 261.5,-216 364.5,-216 364.5,-252"/>
<text text-anchor="start" x="272.832" y="-230.2" font-family="Helvetica,sans-Serif" font-size="12.00" fill="#000000">ACK_HEADER</text>
<path fill="none" stroke="#000000" stroke-width="2" d="M273.8333,-217C273.8333,-217 352.1667,-217 352.1667,-217 357.8333,-217 363.5,-222.6667 363.5,-228.3333 363.5,-228.3333 363.5,-239.6667 363.5,-239.6667 363.5,-245.3333 357.8333,-251 352.1667,-251 352.1667,-251 273.8333,-251 273.8333,-251 268.1667,-251 262.5,-245.3333 262.5,-239.6667 262.5,-239.6667 262.5,-228.3333 262.5,-228.3333 262.5,-222.6667 268.1667,-217 273.8333,-217"/>
</g>
<!-- HEADER&#45;&gt;ACK_HEADER -->
<g id="edge2" class="edge transition">
<title>HEADER&#45;&gt;ACK_HEADER</title>
<path fill="none" stroke="#000000" d="M510.4303,-300.5357C482.3682,-288.6377 442.0759,-272.2183 406,-260 396.0124,-256.6174 385.3185,-253.3274 374.8683,-250.2887"/>
<polygon fill="#000000" stroke="#000000" points="375.5315,-246.8383 364.9547,-247.4576 373.6092,-253.5692 375.5315,-246.8383"/>
<text text-anchor="start" x="462" y="-272" font-family="Helvetica,sans-Serif" font-size="10.00" fill="#000000">bit_cnt = CNT_DONE &#160;&#160;</text>
</g>
<!-- ACK_HEADER&#45;&gt;IDLE -->
<g id="edge3" class="edge transition">
<title>ACK_HEADER&#45;&gt;IDLE</title>
<path fill="none" stroke="#000000" d="M261.0365,-235.9727C208.4974,-239.4255 135,-248.9169 135,-275 135,-357 135,-357 135,-357 135,-384.428 326.3993,-394.0309 409.8555,-396.9145"/>
<polygon fill="#000000" stroke="#000000" points="409.8376,-400.4157 419.9479,-397.2484 410.0691,-393.4195 409.8376,-400.4157"/>
<text text-anchor="start" x="135" y="-313" font-family="Helvetica,sans-Serif" font-size="10.00" fill="#000000">arb_lost = &#39;1&#39; &#160;&#160;</text>
</g>
<!-- ACK_HEADER&#45;&gt;IDLE -->
<g id="edge8" class="edge transition">
<title>ACK_HEADER&#45;&gt;IDLE</title>
<path fill="none" stroke="#000000" d="M261.4116,-248.8027C251.429,-254.8573 244,-263.2951 244,-275 244,-357 244,-357 244,-357 244,-373.6986 350.4184,-387.6638 409.5318,-394.133"/>
<polygon fill="#000000" stroke="#000000" points="409.3185,-397.6301 419.6347,-395.2162 410.0648,-390.67 409.3185,-397.6301"/>
<text text-anchor="start" x="244" y="-325" font-family="Helvetica,sans-Serif" font-size="10.00" fill="#000000">sda_in = &#39;0&#39; &#160;&#160;</text>
<text text-anchor="start" x="244" y="-313" font-family="Helvetica,sans-Serif" font-size="10.00" fill="#000000">not (master_slave = &#39;1&#39;) &#160;&#160;</text>
<text text-anchor="start" x="244" y="-301" font-family="Helvetica,sans-Serif" font-size="10.00" fill="#000000">not (addr_match = &#39;1&#39;) &#160;&#160;</text>
</g>
<!-- ACK_HEADER&#45;&gt;IDLE -->
<g id="edge9" class="edge transition">
<title>ACK_HEADER&#45;&gt;IDLE</title>
<path fill="none" stroke="#000000" d="M364.6138,-249.448C383.3477,-256.633 400,-265.6495 400,-275 400,-357 400,-357 400,-357 400,-365.9012 404.8314,-373.2812 411.4286,-379.2093"/>
<polygon fill="#000000" stroke="#000000" points="409.7048,-382.2922 419.8006,-385.5057 413.9122,-376.6978 409.7048,-382.2922"/>
<text text-anchor="start" x="400" y="-319" font-family="Helvetica,sans-Serif" font-size="10.00" fill="#000000">not (arb_lost = &#39;1&#39;) &#160;&#160;</text>
<text text-anchor="start" x="400" y="-307" font-family="Helvetica,sans-Serif" font-size="10.00" fill="#000000">not (sda_in = &#39;0&#39;) &#160;&#160;</text>
</g>
<!-- RCV_DATA -->
<g id="node5" class="node state regular">
<title>RCV_DATA</title>
<polygon fill="#ffffff" fill-opacity="0.003922" stroke="transparent" stroke-width="2" points="294.5,-134 209.5,-134 209.5,-98 294.5,-98 294.5,-134"/>
<text text-anchor="start" x="220.5008" y="-112.2" font-family="Helvetica,sans-Serif" font-size="12.00" fill="#000000">RCV_DATA</text>
<path fill="none" stroke="#000000" stroke-width="2" d="M221.8333,-99C221.8333,-99 282.1667,-99 282.1667,-99 287.8333,-99 293.5,-104.6667 293.5,-110.3333 293.5,-110.3333 293.5,-121.6667 293.5,-121.6667 293.5,-127.3333 287.8333,-133 282.1667,-133 282.1667,-133 221.8333,-133 221.8333,-133 216.1667,-133 210.5,-127.3333 210.5,-121.6667 210.5,-121.6667 210.5,-110.3333 210.5,-110.3333 210.5,-104.6667 216.1667,-99 221.8333,-99"/>
</g>
<!-- ACK_HEADER&#45;&gt;RCV_DATA -->
<g id="edge4" class="edge transition">
<title>ACK_HEADER&#45;&gt;RCV_DATA</title>
<path fill="none" stroke="#000000" d="M261.23,-230.584C189.8252,-225.3374 68.3567,-214.2762 55.013,-199 40.9786,-182.9331 41.3109,-167.3513 55.013,-151 73.1047,-129.4104 147.3391,-121.1285 199.3167,-117.9579"/>
<polygon fill="#000000" stroke="#000000" points="199.6053,-121.4472 209.3922,-117.3895 199.2109,-114.4584 199.6053,-121.4472"/>
<text text-anchor="start" x="55" y="-184" font-family="Helvetica,sans-Serif" font-size="10.00" fill="#000000">mtx = &#39;0&#39; &#160;&#160;</text>
<text text-anchor="start" x="55" y="-172" font-family="Helvetica,sans-Serif" font-size="10.00" fill="#000000">master_slave = &#39;1&#39;master_slave = &#39;1&#39; &#160;&#160;</text>
<text text-anchor="start" x="55" y="-160" font-family="Helvetica,sans-Serif" font-size="10.00" fill="#000000">sda_in = &#39;0&#39; &#160;&#160;</text>
</g>
<!-- ACK_HEADER&#45;&gt;RCV_DATA -->
<g id="edge6" class="edge transition">
<title>ACK_HEADER&#45;&gt;RCV_DATA</title>
<path fill="none" stroke="#000000" d="M284.3225,-215.7562C278.6134,-210.9343 273.1956,-205.2931 269.333,-199 259.2892,-182.6366 254.9805,-161.4019 253.1702,-144.5074"/>
<polygon fill="#000000" stroke="#000000" points="256.6237,-143.802 252.3061,-134.1269 249.6478,-144.3828 256.6237,-143.802"/>
<text text-anchor="start" x="269" y="-190" font-family="Helvetica,sans-Serif" font-size="10.00" fill="#000000">i2c_header(0) = &#39;0&#39; &#160;&#160;</text>
<text text-anchor="start" x="269" y="-178" font-family="Helvetica,sans-Serif" font-size="10.00" fill="#000000">addr_match = &#39;1&#39;addr_match = &#39;1&#39; &#160;&#160;</text>
<text text-anchor="start" x="269" y="-166" font-family="Helvetica,sans-Serif" font-size="10.00" fill="#000000">sda_in = &#39;0&#39; &#160;&#160;</text>
<text text-anchor="start" x="269" y="-154" font-family="Helvetica,sans-Serif" font-size="10.00" fill="#000000">not (master_slave = &#39;1&#39;) &#160;&#160;</text>
</g>
<!-- XMIT_DATA -->
<g id="node6" class="node state regular">
<title>XMIT_DATA</title>
<polygon fill="#ffffff" fill-opacity="0.003922" stroke="transparent" stroke-width="2" points="722.5,-134 633.5,-134 633.5,-98 722.5,-98 722.5,-134"/>
<text text-anchor="start" x="644.8334" y="-112.2" font-family="Helvetica,sans-Serif" font-size="12.00" fill="#000000">XMIT_DATA</text>
<path fill="none" stroke="#000000" stroke-width="2" d="M645.8333,-99C645.8333,-99 710.1667,-99 710.1667,-99 715.8333,-99 721.5,-104.6667 721.5,-110.3333 721.5,-110.3333 721.5,-121.6667 721.5,-121.6667 721.5,-127.3333 715.8333,-133 710.1667,-133 710.1667,-133 645.8333,-133 645.8333,-133 640.1667,-133 634.5,-127.3333 634.5,-121.6667 634.5,-121.6667 634.5,-110.3333 634.5,-110.3333 634.5,-104.6667 640.1667,-99 645.8333,-99"/>
</g>
<!-- ACK_HEADER&#45;&gt;XMIT_DATA -->
<g id="edge5" class="edge transition">
<title>ACK_HEADER&#45;&gt;XMIT_DATA</title>
<path fill="none" stroke="#000000" d="M364.5001,-226.3977C388.3546,-222.9976 417.093,-219.0727 443,-216 481.1411,-211.4763 581.4797,-217.751 615,-199 637.5229,-186.4008 654.5073,-162.0696 665.1318,-142.9941"/>
<polygon fill="#000000" stroke="#000000" points="668.2413,-144.601 669.833,-134.1264 662.0567,-141.3222 668.2413,-144.601"/>
<text text-anchor="start" x="660" y="-184" font-family="Helvetica,sans-Serif" font-size="10.00" fill="#000000">master_slave = &#39;1&#39;master_slave = &#39;1&#39; &#160;&#160;</text>
<text text-anchor="start" x="660" y="-172" font-family="Helvetica,sans-Serif" font-size="10.00" fill="#000000">sda_in = &#39;0&#39; &#160;&#160;</text>
<text text-anchor="start" x="660" y="-160" font-family="Helvetica,sans-Serif" font-size="10.00" fill="#000000">not (mtx = &#39;0&#39;) &#160;&#160;</text>
</g>
<!-- ACK_HEADER&#45;&gt;XMIT_DATA -->
<g id="edge7" class="edge transition">
<title>ACK_HEADER&#45;&gt;XMIT_DATA</title>
<path fill="none" stroke="#000000" d="M364.7134,-226.8655C385.8101,-221.8655 409.3413,-213.3811 427,-199 445.8675,-183.6345 433.4136,-164.975 453.333,-151 480.0073,-132.2859 565.7092,-123.153 623.215,-119.0266"/>
<polygon fill="#000000" stroke="#000000" points="623.5132,-122.5144 633.2494,-118.3365 623.0328,-115.5309 623.5132,-122.5144"/>
<text text-anchor="start" x="453" y="-190" font-family="Helvetica,sans-Serif" font-size="10.00" fill="#000000">addr_match = &#39;1&#39;addr_match = &#39;1&#39; &#160;&#160;</text>
<text text-anchor="start" x="453" y="-178" font-family="Helvetica,sans-Serif" font-size="10.00" fill="#000000">sda_in = &#39;0&#39; &#160;&#160;</text>
<text text-anchor="start" x="453" y="-166" font-family="Helvetica,sans-Serif" font-size="10.00" fill="#000000">not (master_slave = &#39;1&#39;) &#160;&#160;</text>
<text text-anchor="start" x="453" y="-154" font-family="Helvetica,sans-Serif" font-size="10.00" fill="#000000">not (i2c_header(0) = &#39;0&#39;) &#160;&#160;</text>
</g>
<!-- RCV_DATA&#45;&gt;HEADER -->
<g id="edge10" class="edge transition">
<title>RCV_DATA&#45;&gt;HEADER</title>
<path fill="none" stroke="#000000" d="M294.9559,-118.1906C428.9079,-125.0705 830.3673,-146.0809 835,-151 849.626,-166.5304 849.7,-183.5397 835,-199 828.5424,-205.7917 506.8443,-212.7642 498.049,-216 461.7417,-229.3574 446.1079,-234.3018 429,-269 415.0109,-297.3725 463.7285,-288.8172 494,-298 496.1541,-298.6534 498.3521,-299.3391 500.5679,-300.0455"/>
<polygon fill="#000000" stroke="#000000" points="499.721,-303.451 510.3138,-303.2398 501.9013,-296.7992 499.721,-303.451"/>
<text text-anchor="start" x="498" y="-231" font-family="Helvetica,sans-Serif" font-size="10.00" fill="#000000">detect_start = &#39;1&#39; &#160;&#160;</text>
</g>
<!-- ACK_DATA -->
<g id="node7" class="node state regular">
<title>ACK_DATA</title>
<polygon fill="#ffffff" fill-opacity="0.003922" stroke="transparent" stroke-width="2" points="293.5,-52 208.5,-52 208.5,-16 293.5,-16 293.5,-52"/>
<text text-anchor="start" x="219.8308" y="-30.2" font-family="Helvetica,sans-Serif" font-size="12.00" fill="#000000">ACK_DATA</text>
<path fill="none" stroke="#000000" stroke-width="2" d="M220.8333,-17C220.8333,-17 281.1667,-17 281.1667,-17 286.8333,-17 292.5,-22.6667 292.5,-28.3333 292.5,-28.3333 292.5,-39.6667 292.5,-39.6667 292.5,-45.3333 286.8333,-51 281.1667,-51 281.1667,-51 220.8333,-51 220.8333,-51 215.1667,-51 209.5,-45.3333 209.5,-39.6667 209.5,-39.6667 209.5,-28.3333 209.5,-28.3333 209.5,-22.6667 215.1667,-17 220.8333,-17"/>
</g>
<!-- RCV_DATA&#45;&gt;ACK_DATA -->
<g id="edge11" class="edge transition">
<title>RCV_DATA&#45;&gt;ACK_DATA</title>
<path fill="none" stroke="#000000" d="M251.7781,-97.8015C251.6512,-87.3976 251.4893,-74.1215 251.3461,-62.3768"/>
<polygon fill="#000000" stroke="#000000" points="254.8431,-62.1041 251.2213,-52.1476 247.8436,-62.1896 254.8431,-62.1041"/>
<text text-anchor="start" x="251" y="-72" font-family="Helvetica,sans-Serif" font-size="10.00" fill="#000000">bit_cnt = CNT_DONE &#160;&#160;</text>
</g>
<!-- XMIT_DATA&#45;&gt;HEADER -->
<g id="edge12" class="edge transition">
<title>XMIT_DATA&#45;&gt;HEADER</title>
<path fill="none" stroke="#000000" d="M722.8329,-119.6415C771.8415,-124.0863 844.5749,-132.2307 853,-142 869.5448,-161.1845 870.1743,-180.3768 853,-199 843.9401,-208.8242 624.5844,-209.2524 613.049,-216 583.3501,-233.3724 590.3486,-252.549 571,-281 569.1103,-283.7786 567.1126,-286.6618 565.103,-289.527"/>
<polygon fill="#000000" stroke="#000000" points="562.063,-287.7635 559.1356,-297.9459 567.7739,-291.8115 562.063,-287.7635"/>
<text text-anchor="start" x="613" y="-231" font-family="Helvetica,sans-Serif" font-size="10.00" fill="#000000">detect_start = &#39;1&#39; &#160;&#160;</text>
</g>
<!-- WAIT_ACK -->
<g id="node8" class="node state regular">
<title>WAIT_ACK</title>
<polygon fill="#ffffff" fill-opacity="0.003922" stroke="transparent" stroke-width="2" points="864.5,-52 781.5,-52 781.5,-16 864.5,-16 864.5,-52"/>
<text text-anchor="start" x="792.8328" y="-30.2" font-family="Helvetica,sans-Serif" font-size="12.00" fill="#000000">WAIT_ACK</text>
<path fill="none" stroke="#000000" stroke-width="2" d="M793.8333,-17C793.8333,-17 852.1667,-17 852.1667,-17 857.8333,-17 863.5,-22.6667 863.5,-28.3333 863.5,-28.3333 863.5,-39.6667 863.5,-39.6667 863.5,-45.3333 857.8333,-51 852.1667,-51 852.1667,-51 793.8333,-51 793.8333,-51 788.1667,-51 782.5,-45.3333 782.5,-39.6667 782.5,-39.6667 782.5,-28.3333 782.5,-28.3333 782.5,-22.6667 788.1667,-17 793.8333,-17"/>
</g>
<!-- XMIT_DATA&#45;&gt;WAIT_ACK -->
<g id="edge13" class="edge transition">
<title>XMIT_DATA&#45;&gt;WAIT_ACK</title>
<path fill="none" stroke="#000000" d="M710.1802,-97.8015C731.3933,-85.8052 759.3589,-69.9901 782.1398,-57.1072"/>
<polygon fill="#000000" stroke="#000000" points="783.9281,-60.1168 790.9098,-52.1476 780.4823,-54.0236 783.9281,-60.1168"/>
<text text-anchor="start" x="760" y="-72" font-family="Helvetica,sans-Serif" font-size="10.00" fill="#000000">bit_cnt = CNT_DONE &#160;&#160;</text>
</g>
<!-- ACK_DATA&#45;&gt;RCV_DATA -->
<g id="edge14" class="edge transition">
<title>ACK_DATA&#45;&gt;RCV_DATA</title>
<path fill="none" stroke="#000000" d="M245.5101,-52.252C243.532,-60.9355 242.0451,-71.4783 243.221,-81 243.5125,-83.3607 243.9107,-85.791 244.3775,-88.2184"/>
<polygon fill="#000000" stroke="#000000" points="240.9682,-89.0109 246.585,-97.9944 247.7963,-87.4691 240.9682,-89.0109"/>
<text text-anchor="middle" x="244.3895" y="-72" font-family="Helvetica,sans-Serif" font-size="10.00" fill="#000000"> </text>
</g>
<!-- WAIT_ACK&#45;&gt;IDLE -->
<g id="edge15" class="edge transition">
<title>WAIT_ACK&#45;&gt;IDLE</title>
<path fill="none" stroke="#000000" d="M864.5487,-43.8911C890.4938,-51.3203 919,-62.3592 919,-75 919,-142.5 919,-142.5 919,-142.5 919,-168.8547 913.0602,-175.5667 901,-199 885.3801,-229.3497 855,-226.3666 855,-260.5 855,-357 855,-357 855,-357 855,-366.2061 587.8387,-387.4078 486.4216,-395.1245"/>
<polygon fill="#000000" stroke="#000000" points="486.0031,-391.6461 476.2963,-395.892 486.5323,-398.6261 486.0031,-391.6461"/>
<text text-anchor="start" x="887" y="-231" font-family="Helvetica,sans-Serif" font-size="10.00" fill="#000000">arb_lost = &#39;1&#39; &#160;&#160;</text>
</g>
<!-- WAIT_ACK&#45;&gt;IDLE -->
<g id="edge17" class="edge transition">
<title>WAIT_ACK&#45;&gt;IDLE</title>
<path fill="none" stroke="#000000" d="M864.8827,-42.7135C880.7222,-48.6775 895,-58.6016 895,-75 895,-142.5 895,-142.5 895,-142.5 895,-170.9314 888.0958,-182.419 865,-199 827.0935,-226.214 802.244,-193.4474 761.392,-216 738.2681,-228.7657 722,-234.0865 722,-260.5 722,-357 722,-357 722,-357 722,-380.5721 561.3374,-392.0847 486.0642,-396.185"/>
<polygon fill="#000000" stroke="#000000" points="485.8365,-392.692 476.0352,-396.7148 486.2059,-399.6823 485.8365,-392.692"/>
<text text-anchor="start" x="761" y="-237" font-family="Helvetica,sans-Serif" font-size="10.00" fill="#000000">not (arb_lost = &#39;1&#39;) &#160;&#160;</text>
<text text-anchor="start" x="761" y="-225" font-family="Helvetica,sans-Serif" font-size="10.00" fill="#000000">not (sda = &#39;0&#39;) &#160;&#160;</text>
</g>
<!-- WAIT_ACK&#45;&gt;XMIT_DATA -->
<g id="edge16" class="edge transition">
<title>WAIT_ACK&#45;&gt;XMIT_DATA</title>
<path fill="none" stroke="#000000" d="M781.3405,-40.1166C747.0137,-45.9929 701.9733,-55.907 689.171,-69 684.2071,-74.0766 681.3046,-80.9353 679.643,-87.8424"/>
<polygon fill="#000000" stroke="#000000" points="676.1756,-87.3582 678.0008,-97.7946 683.0822,-88.4979 676.1756,-87.3582"/>
<text text-anchor="start" x="689" y="-72" font-family="Helvetica,sans-Serif" font-size="10.00" fill="#000000">sda = &#39;0&#39; &#160;&#160;</text>
</g>
</g>
</svg>
